<svg xmlns="http://www.w3.org/2000/svg" width="60" height="80" viewBox="0 0 60 80">
  <path d="M 30 76 L 30 26 Q 30 8 46 8 Q 58 8 58 24 Q 58 40 44 40 Q 35 40 32 34"
        fill="none" stroke="rgba(0,0,0,0.22)" stroke-width="18" stroke-linecap="round"/>
  <path d="M 30 76 L 30 26 Q 30 8 46 8 Q 58 8 58 24 Q 58 40 44 40 Q 35 40 32 34"
        fill="none" stroke="#ffffff" stroke-width="14" stroke-linecap="round"/>
  <path d="M 30 76 L 30 26 Q 30 8 46 8 Q 58 8 58 24 Q 58 40 44 40 Q 35 40 32 34"
        fill="none" stroke="#e30020" stroke-width="14" stroke-linecap="butt"
        stroke-dasharray="14 14" stroke-dashoffset="4"/>
  <path d="M 33 76 L 33 26 Q 33 11 46 11 Q 55 11 55 24 Q 55 36 44 37"
        fill="none" stroke="rgba(255,255,255,0.55)" stroke-width="4" stroke-linecap="round"/>
</svg>
